<svg width="52" height="50" viewBox="0 0 52 50" fill="none" xmlns="http://www.w3.org/2000/svg">
<rect width="51.6667" height="50" rx="25" transform="matrix(-1 0 0 1 51.6667 0)" fill="#1DF097"/>
<path d="M30.5609 38.1875C19.1038 38.1875 12.8392 29 12.8392 21.0375C12.8392 20.775 12.8392 20.5125 12.8521 20.2625C11.6379 19.4125 10.5788 18.35 9.7392 17.1375C10.85 17.6125 12.0513 17.9375 13.3171 18.0875C12.0254 17.3375 11.0438 16.1625 10.5788 14.75C11.78 15.4375 13.1104 15.9375 14.5313 16.2125C15.6679 15.0375 17.2825 14.3125 19.0779 14.3125C22.5138 14.3125 25.3038 17.0125 25.3038 20.3375C25.3038 20.8125 25.2521 21.275 25.1359 21.7125C30.3154 21.4625 34.9009 19.0625 37.975 15.4125C38.5046 16.3 38.8146 17.3375 38.8146 18.4375C38.8146 20.525 37.7167 22.375 36.0375 23.45C37.0579 23.425 38.0138 23.15 38.8534 22.7C38.8534 22.725 38.8534 22.75 38.8534 22.775C38.8534 25.7 36.7092 28.125 33.8546 28.6875C34.3713 28.825 34.9267 28.9 35.495 28.9C35.8954 28.9 36.2829 28.8625 36.6704 28.7875C35.8825 31.1875 33.5834 32.925 30.8579 32.975C32.9892 34.5875 35.6759 35.55 38.595 35.55C39.0988 35.55 39.5896 35.525 40.0804 35.4625C37.355 37.1875 34.0742 38.1875 30.5609 38.1875Z" fill="#ECEEED"/>
</svg>
